<mxfile host="app.diagrams.net" modified="2021-10-09T08:45:41.282Z" agent="5.0 (Macintosh; Intel Mac OS X 10_15_7) AppleWebKit/537.36 (KHTML, like Gecko) Chrome/94.0.4606.61 Safari/537.36" etag="lcnBmb38a9eP4XuCbx2F" version="15.3.8" type="github">
  <diagram id="ApqCbR3X10Ap8amm-_Jj" name="第 1 页">
    <mxGraphModel dx="1186" dy="773" grid="1" gridSize="10" guides="1" tooltips="1" connect="1" arrows="1" fold="1" page="1" pageScale="1" pageWidth="827" pageHeight="1169" math="0" shadow="0">
      <root>
        <mxCell id="0" />
        <mxCell id="1" parent="0" />
        <mxCell id="zge9e7tA55sIXexSuKN3-2" value="" style="rounded=0;whiteSpace=wrap;html=1;align=center;dashed=1;dashPattern=1 1;" vertex="1" parent="1">
          <mxGeometry x="140" y="232" width="589" height="337" as="geometry" />
        </mxCell>
        <mxCell id="zge9e7tA55sIXexSuKN3-3" value="" style="rounded=0;whiteSpace=wrap;html=1;align=center;" vertex="1" parent="1">
          <mxGeometry x="226" y="381" width="398" height="182" as="geometry" />
        </mxCell>
        <mxCell id="zge9e7tA55sIXexSuKN3-4" value="&lt;span style=&quot;font-size: 16px&quot;&gt;&lt;b&gt;&amp;nbsp;(计算能力)&lt;br&gt;&lt;/b&gt;提供全套权限api,解析权限数据,定制部分权限&lt;br&gt;&lt;/span&gt;" style="rounded=1;whiteSpace=wrap;html=1;" vertex="1" parent="1">
          <mxGeometry x="226" y="261" width="390" height="70" as="geometry" />
        </mxCell>
        <mxCell id="zge9e7tA55sIXexSuKN3-5" value="" style="shape=flexArrow;endArrow=classic;startArrow=classic;html=1;entryX=0.5;entryY=1;entryDx=0;entryDy=0;" edge="1" parent="1" source="zge9e7tA55sIXexSuKN3-3" target="zge9e7tA55sIXexSuKN3-4">
          <mxGeometry width="50" height="50" relative="1" as="geometry">
            <mxPoint x="286" y="391" as="sourcePoint" />
            <mxPoint x="336" y="341" as="targetPoint" />
          </mxGeometry>
        </mxCell>
        <mxCell id="zge9e7tA55sIXexSuKN3-6" value="&lt;span style=&quot;font-size: 19px&quot;&gt;&lt;b&gt;权限模型(骨架和肉)&lt;/b&gt;&lt;/span&gt;" style="text;html=1;align=center;verticalAlign=middle;resizable=0;points=[];autosize=1;" vertex="1" parent="1">
          <mxGeometry x="306" y="391" width="175" height="21" as="geometry" />
        </mxCell>
        <mxCell id="zge9e7tA55sIXexSuKN3-7" value="&lt;font style=&quot;font-size: 15px&quot;&gt;1.map(人,角色list,所负责权限范围 人or部门)&lt;br&gt;2.map(部门,人list)&lt;br&gt;3.部门树,人员树&lt;br&gt;&lt;br&gt;&lt;i&gt;amc中台数据:&lt;/i&gt;&lt;br&gt;4.map(自定义角色,部门code/人/权限数据)&lt;br&gt;5.map(角色,资源list),&lt;br&gt;&lt;br&gt;&lt;/font&gt;" style="text;html=1;align=left;verticalAlign=middle;resizable=0;points=[];autosize=1;" vertex="1" parent="1">
          <mxGeometry x="306" y="444" width="301" height="124" as="geometry" />
        </mxCell>
        <mxCell id="zge9e7tA55sIXexSuKN3-8" value="&amp;nbsp;&lt;b&gt;输入(INPUT)&lt;/b&gt;&lt;br&gt;&lt;br&gt;1.根据接口局部更新&lt;br&gt;&amp;nbsp; &amp;nbsp;(自定义权限)&lt;br&gt;2.传入符合格式的的json&lt;br&gt;(为自定义导入..)" style="rounded=0;whiteSpace=wrap;html=1;align=center;" vertex="1" parent="1">
          <mxGeometry x="243" y="113" width="156" height="110" as="geometry" />
        </mxCell>
        <mxCell id="zge9e7tA55sIXexSuKN3-9" value="" style="shape=flexArrow;endArrow=classic;html=1;entryX=0.25;entryY=0;entryDx=0;entryDy=0;" edge="1" parent="1" target="zge9e7tA55sIXexSuKN3-4">
          <mxGeometry width="50" height="50" relative="1" as="geometry">
            <mxPoint x="324" y="222" as="sourcePoint" />
            <mxPoint x="116" y="671" as="targetPoint" />
            <Array as="points" />
          </mxGeometry>
        </mxCell>
        <mxCell id="zge9e7tA55sIXexSuKN3-10" value="&lt;b&gt;输出(OUTPUT)&lt;/b&gt;&lt;br&gt;&lt;br&gt;&lt;br&gt;&amp;nbsp; &amp;nbsp;&lt;br&gt;&amp;nbsp; &amp;nbsp;全量json格式导出接口&lt;br&gt;&amp;nbsp; &amp;nbsp;(便于持久化锁数据)" style="rounded=0;whiteSpace=wrap;html=1;align=center;" vertex="1" parent="1">
          <mxGeometry x="446" y="113" width="146" height="108" as="geometry" />
        </mxCell>
        <mxCell id="zge9e7tA55sIXexSuKN3-11" value="" style="shape=flexArrow;endArrow=classic;html=1;exitX=0.75;exitY=0;exitDx=0;exitDy=0;" edge="1" parent="1" source="zge9e7tA55sIXexSuKN3-4" target="zge9e7tA55sIXexSuKN3-10">
          <mxGeometry width="50" height="50" relative="1" as="geometry">
            <mxPoint x="562" y="520.5" as="sourcePoint" />
            <mxPoint x="612" y="520.5" as="targetPoint" />
          </mxGeometry>
        </mxCell>
        <mxCell id="zge9e7tA55sIXexSuKN3-12" value="1.提供(日期,应用号)&amp;nbsp; -&amp;gt; 输出: 带版本的全量权限数据json&amp;nbsp; (本次新增)&lt;br&gt;&amp;nbsp; 2. 实时的权限接口&amp;nbsp; &amp;nbsp;(已有)&amp;nbsp; &amp;nbsp; &amp;nbsp; &amp;nbsp; &amp;nbsp; &amp;nbsp; &amp;nbsp; &amp;nbsp; &amp;nbsp; &amp;nbsp; &amp;nbsp; &amp;nbsp; &amp;nbsp; &amp;nbsp; &amp;nbsp; &amp;nbsp; &amp;nbsp; &amp;nbsp; &amp;nbsp; &amp;nbsp; &amp;nbsp; &amp;nbsp; &amp;nbsp; &amp;nbsp; &amp;nbsp; &amp;nbsp; &amp;nbsp; &amp;nbsp; &amp;nbsp; &amp;nbsp; &amp;nbsp; &amp;nbsp; &amp;nbsp; &amp;nbsp;" style="rounded=0;whiteSpace=wrap;html=1;align=center;dashed=1;dashPattern=1 1;" vertex="1" parent="1">
          <mxGeometry x="138" y="594" width="593" height="103" as="geometry" />
        </mxCell>
        <mxCell id="zge9e7tA55sIXexSuKN3-13" value="&lt;b&gt;&lt;font style=&quot;font-size: 21px&quot;&gt;客户端&lt;br&gt;SDK&lt;br&gt;&lt;/font&gt;&lt;/b&gt;" style="text;html=1;align=center;verticalAlign=middle;resizable=0;points=[];autosize=1;" vertex="1" parent="1">
          <mxGeometry x="146.5" y="241" width="73" height="38" as="geometry" />
        </mxCell>
        <mxCell id="zge9e7tA55sIXexSuKN3-14" value="&lt;span style=&quot;font-size: 21px&quot;&gt;&lt;b&gt;&lt;br&gt;服务端&lt;br&gt;&lt;/b&gt;&lt;/span&gt;" style="text;html=1;align=center;verticalAlign=middle;resizable=0;points=[];autosize=1;" vertex="1" parent="1">
          <mxGeometry x="151" y="590" width="73" height="38" as="geometry" />
        </mxCell>
        <mxCell id="zge9e7tA55sIXexSuKN3-15" value="组织和人员架构数据&lt;br&gt;(实时数据and历史版本数据)" style="rounded=0;whiteSpace=wrap;html=1;align=center;dashed=1;dashPattern=1 1;" vertex="1" parent="1">
          <mxGeometry x="137" y="737" width="297" height="101" as="geometry" />
        </mxCell>
        <mxCell id="zge9e7tA55sIXexSuKN3-16" value="&lt;font style=&quot;font-size: 13px&quot;&gt;&lt;u&gt;&lt;i&gt;客户端&lt;br&gt;&lt;/i&gt;缓存&lt;/u&gt;&lt;br&gt;&lt;/font&gt;" style="text;html=1;align=center;verticalAlign=middle;resizable=0;points=[];autosize=1;" vertex="1" parent="1">
          <mxGeometry x="229" y="383" width="49" height="32" as="geometry" />
        </mxCell>
        <mxCell id="zge9e7tA55sIXexSuKN3-17" value="" style="shape=flexArrow;endArrow=classic;html=1;entryX=0.5;entryY=1;entryDx=0;entryDy=0;exitX=0.5;exitY=0;exitDx=0;exitDy=0;" edge="1" parent="1" source="zge9e7tA55sIXexSuKN3-12" target="zge9e7tA55sIXexSuKN3-2">
          <mxGeometry width="50" height="50" relative="1" as="geometry">
            <mxPoint x="417" y="749" as="sourcePoint" />
            <mxPoint x="467" y="699" as="targetPoint" />
          </mxGeometry>
        </mxCell>
        <mxCell id="zge9e7tA55sIXexSuKN3-18" value="" style="shape=flexArrow;endArrow=classic;html=1;entryX=0.25;entryY=1;entryDx=0;entryDy=0;" edge="1" parent="1" source="zge9e7tA55sIXexSuKN3-15" target="zge9e7tA55sIXexSuKN3-12">
          <mxGeometry width="50" height="50" relative="1" as="geometry">
            <mxPoint x="285" y="736" as="sourcePoint" />
            <mxPoint x="295" y="714" as="targetPoint" />
          </mxGeometry>
        </mxCell>
        <mxCell id="zge9e7tA55sIXexSuKN3-19" value="1.实时的权限配置界面&lt;br&gt;2.角色和资源映射数据&lt;br&gt;3.自定义角色" style="rounded=0;whiteSpace=wrap;html=1;align=center;dashed=1;dashPattern=1 1;" vertex="1" parent="1">
          <mxGeometry x="456" y="738" width="283" height="100" as="geometry" />
        </mxCell>
        <mxCell id="zge9e7tA55sIXexSuKN3-20" value="&lt;span&gt;&lt;b&gt;&lt;font style=&quot;font-size: 21px&quot;&gt;主数据&amp;nbsp;&lt;/font&gt;&lt;/b&gt;&lt;/span&gt;" style="text;html=1;align=center;verticalAlign=middle;resizable=0;points=[];autosize=1;" vertex="1" parent="1">
          <mxGeometry x="144.5" y="742" width="79" height="21" as="geometry" />
        </mxCell>
        <mxCell id="zge9e7tA55sIXexSuKN3-21" value="&lt;span&gt;&lt;b&gt;&lt;font style=&quot;font-size: 21px&quot;&gt;amc权限中台&lt;/font&gt;&lt;/b&gt;&lt;/span&gt;" style="text;html=1;align=center;verticalAlign=middle;resizable=0;points=[];autosize=1;" vertex="1" parent="1">
          <mxGeometry x="458" y="742" width="136" height="21" as="geometry" />
        </mxCell>
        <mxCell id="zge9e7tA55sIXexSuKN3-22" value="" style="shape=flexArrow;endArrow=classic;html=1;entryX=0.75;entryY=1;entryDx=0;entryDy=0;" edge="1" parent="1" target="zge9e7tA55sIXexSuKN3-12">
          <mxGeometry width="50" height="50" relative="1" as="geometry">
            <mxPoint x="582" y="737" as="sourcePoint" />
            <mxPoint x="295.2499999999998" y="709" as="targetPoint" />
          </mxGeometry>
        </mxCell>
      </root>
    </mxGraphModel>
  </diagram>
</mxfile>
